<?xml version="1.0" encoding="utf-8"?>
<svg xmlns="http://www.w3.org/2000/svg" style="margin: auto; display: block; shape-rendering: auto;" width="600" height="250" preserveAspectRatio="xMidYMid">
<style type="text/css">
  text {
    text-anchor: middle; font-size: 100px; opacity: 0;
  }
</style>
<g transform="translate(300,125)">
  <g transform="translate(0,0)"><g class="path" style="transform-origin: -121.85px -8.39951px; transform: matrix(1, 0, 0, 1, 0, 0); animation: bounce-b93e1b0f-a8f3-46ad-bb35-f105ebe37698 1s linear -0.5775s infinite normal forwards running;"><path d="M24.20-3.60L24.20-3.60L24.20-3.60Q22.90-1.90 20.65-0.50L20.65-0.50L20.65-0.50Q18.40 0.90 14.80 0.90L14.80 0.90L14.80 0.90Q11.20 0.90 8.70-1.40L8.70-1.40L8.70-1.40Q6.20-3.70 6.20-7.90L6.20-7.90L6.20-7.90Q6.20-8.70 6.40-10.50L6.40-10.50L12.90-46.50L12.90-46.50Q14.70-56.40 17.85-60.60L17.85-60.60L17.85-60.60Q21-64.80 26.20-64.80L26.20-64.80L26.20-64.80Q29.80-64.80 32.15-62.10L32.15-62.10L32.15-62.10Q34.50-59.40 34.50-53.90L34.50-53.90L34.50-53.90Q34.50-48.40 30.25-38.20L30.25-38.20L30.25-38.20Q26-28 26-23.30L26-23.30L24.20-23.30L24.20-23.30Q24.20-28.60 28.40-38.45L28.40-38.45L28.40-38.45Q32.60-48.30 32.60-54.20L32.60-54.20L32.60-54.20Q32.60-57.80 30.95-60.40L30.95-60.40L30.95-60.40Q29.30-63 26.90-63L26.90-63L26.90-63Q26.80-60.40 23.45-39.65L23.45-39.65L23.45-39.65Q20.10-18.90 16.80-1.10L16.80-1.10L16.80-1.10Q19.60-1.10 22-4L22-4L22-4Q24.40-6.90 25.40-9.80L25.40-9.80L26.50-12.80L28.30-12L28.30-12Q28-10.60 26.75-7.95L26.75-7.95L26.75-7.95Q25.50-5.30 24.20-3.60" fill="#eb7532" stroke="none" stroke-width="none" transform="translate(-142.19998168945312,23.550499420166016)" style="fill: rgb(230, 38, 31);"></path></g><g class="path" style="transform-origin: -88.9px 4.55051px; transform: matrix(1, 0, 0, 1, 0, 0); animation: bounce-b93e1b0f-a8f3-46ad-bb35-f105ebe37698 1s linear -0.495s infinite normal forwards running;"><path d="M49.40 0.90L49.40 0.90Q41.70 0.90 37.70-2.95L37.70-2.95L37.70-2.95Q33.70-6.80 33.70-12.65L33.70-12.65L33.70-12.65Q33.70-18.50 34.75-22.65L34.75-22.65L34.75-22.65Q35.80-26.80 38.20-30.65L38.20-30.65L38.20-30.65Q40.60-34.50 45.45-36.70L45.45-36.70L45.45-36.70Q50.30-38.90 57.55-38.90L57.55-38.90L57.55-38.90Q64.80-38.90 68.85-35.05L68.85-35.05L68.85-35.05Q72.90-31.20 72.90-24.50L72.90-24.50L72.90-24.50Q72.90-13.10 66.85-6.10L66.85-6.10L66.85-6.10Q60.80 0.90 49.40 0.90L49.40 0.90zM45-9.40L45-9.40L45-9.40Q45-1.40 49.65-1.40L49.65-1.40L49.65-1.40Q54.30-1.40 57.95-9.45L57.95-9.45L57.95-9.45Q61.60-17.50 61.60-28.60L61.60-28.60L61.60-28.60Q61.60-37 57.05-37L57.05-37L57.05-37Q52.50-37 48.75-29.35L48.75-29.35L48.75-29.35Q45-21.70 45-9.40" fill="#eb7532" stroke="none" stroke-width="none" transform="translate(-142.19998168945312,23.550499420166016)" style="fill: rgb(235, 117, 50);"></path></g><g class="path" style="transform-origin: -42.8px 4.55051px; transform: matrix(1, 0, 0, 1, 0, 0); animation: bounce-b93e1b0f-a8f3-46ad-bb35-f105ebe37698 1s linear -0.4125s infinite normal forwards running;"><path d="M113.10 0.90L113.10 0.90L113.10 0.90Q104.30 0.90 103.50-6.80L103.50-6.80L103.50-6.80Q99.10 0.90 92.40 0.90L92.40 0.90L92.40 0.90Q85.70 0.90 81.75-3.15L81.75-3.15L81.75-3.15Q77.80-7.20 77.80-14.50L77.80-14.50L77.80-14.50Q77.80-25.90 83.40-32.40L83.40-32.40L83.40-32.40Q89-38.90 97.90-38.90L97.90-38.90L97.90-38.90Q105.20-38.90 107.60-32L107.60-32L107.60-32Q108.10-35 108.70-38L108.70-38L108.70-38Q116.10-38 119.70-38.60L119.70-38.60L121-38.90L114.10-1.10L114.10-1.10Q117.10-1.40 119.10-3.90L119.10-3.90L120.60-2.70L120.60-2.70Q117.60 0.90 113.10 0.90zM89.10-9.40L89.10-9.40Q89.10-4.90 90.25-3.15L90.25-3.15L90.25-3.15Q91.40-1.40 93.80-1.40L93.80-1.40L93.80-1.40Q96.20-1.40 98.70-4L98.70-4L98.70-4Q102-7.40 104-12.60L104-12.60L104-12.60Q104.30-13.90 105.15-18.85L105.15-18.85L105.15-18.85Q106-23.80 106.60-27L106.60-27L106.60-27Q106.30-30.80 104.50-33.60L104.50-33.60L104.50-33.60Q102.70-36.40 100-36.40L100-36.40L100-36.40Q95.10-36.40 92.10-27.65L92.10-27.65L92.10-27.65Q89.10-18.90 89.10-9.40L89.10-9.40" fill="#eb7532" stroke="none" stroke-width="none" transform="translate(-142.19998168945312,23.550499420166016)" style="fill: rgb(247, 208, 56);"></path></g><g class="path" style="transform-origin: 6.65002px -8.39951px; transform: matrix(1, 0, 0, 1, 0, 0); animation: bounce-b93e1b0f-a8f3-46ad-bb35-f105ebe37698 1s linear -0.33s infinite normal forwards running;"><path d="M160.90 0.90L160.90 0.90L160.90 0.90Q152.10 0.90 151.30-6.60L151.30-6.60L151.30-6.60Q146.90 0.90 140.10 0.90L140.10 0.90L140.10 0.90Q133.30 0.90 129.70-2.95L129.70-2.95L129.70-2.95Q126.10-6.80 126.10-13.50L126.10-13.50L126.10-13.50Q126.10-25.30 131.70-32.10L131.70-32.10L131.70-32.10Q137.30-38.90 146.20-38.90L146.20-38.90L146.20-38.90Q151.30-38.90 154.10-35.80L154.10-35.80L154.10-35.80Q155.30-34.20 155.60-33.40L155.60-33.40L161-62.80L161-62.80Q158-62.50 156-60L156-60L154.50-61.20L154.50-61.20Q157.50-64.80 162.05-64.80L162.05-64.80L162.05-64.80Q166.60-64.80 169.10-62.50L169.10-62.50L169.10-62.50Q171.60-60.20 171.60-56L171.60-56L171.60-56Q171.60-55.20 171.40-53.40L171.40-53.40L171.40-53.40Q166.50-25.90 161.90-1.10L161.90-1.10L161.90-1.10Q164.90-1.40 166.90-3.90L166.90-3.90L168.40-2.70L168.40-2.70Q165.40 0.90 160.90 0.90zM137.40-9.40L137.40-9.40Q137.40-4.80 138.35-3.10L138.35-3.10L138.35-3.10Q139.30-1.40 141.35-1.40L141.35-1.40L141.35-1.40Q143.40-1.40 145.30-2.80L145.30-2.80L145.30-2.80Q147.20-4.20 148.50-6.40L148.50-6.40L148.50-6.40Q150.90-10.10 151.90-12.70L151.90-12.70L154.80-28.50L154.80-28.50Q154.60-31.70 152.70-34.35L152.70-34.35L152.70-34.35Q150.80-37 146.20-37L146.20-37L146.20-37Q143-37 140.20-27.60L140.20-27.60L140.20-27.60Q137.40-18.20 137.40-9.40L137.40-9.40" fill="#eb7532" stroke="none" stroke-width="none" transform="translate(-142.19998168945312,23.550499420166016)" style="fill: rgb(163, 224, 72);"></path></g><g class="path" style="transform-origin: 41.85px 4.55051px; transform: matrix(1, 0, 0, 1, 0, 0); animation: bounce-b93e1b0f-a8f3-46ad-bb35-f105ebe37698 1s linear -0.2475s infinite normal forwards running;"><path d="M192.40-2.70L192.40-2.70Q189.40 0.90 184.90 0.90L184.90 0.90L184.90 0.90Q180.40 0.90 177.85-1.40L177.85-1.40L177.85-1.40Q175.30-3.70 175.30-7.40L175.30-7.40L175.30-7.40Q175.30-8.70 176.90-18.30L176.90-18.30L180.20-36.20L176-36.20L176.20-38L180.50-38L180.50-38Q187.90-38 191.40-38.60L191.40-38.60L192.80-38.90L185.90-1.10L185.90-1.10Q188.90-1.40 190.90-3.90L190.90-3.90L192.40-2.70" fill="#eb7532" stroke="none" stroke-width="none" transform="translate(-142.19998168945312,23.550499420166016)" style="fill: rgb(73, 218, 154);"></path></g><g class="path" style="transform-origin: 46.55px -30.0995px; transform: matrix(1, 0, 0, 1, 0, 0); animation: bounce-b93e1b0f-a8f3-46ad-bb35-f105ebe37698 1s linear -0.165s infinite normal forwards running;"><path d="M183.60-48.50L183.60-48.50L183.60-48.50Q181.50-50.60 181.50-53.60L181.50-53.60L181.50-53.60Q181.50-56.60 183.60-58.75L183.60-58.75L183.60-58.75Q185.70-60.90 188.70-60.90L188.70-60.90L188.70-60.90Q191.70-60.90 193.85-58.75L193.85-58.75L193.85-58.75Q196-56.60 196-53.60L196-53.60L196-53.60Q196-50.60 193.85-48.50L193.85-48.50L193.85-48.50Q191.70-46.40 188.70-46.40L188.70-46.40L188.70-46.40Q185.70-46.40 183.60-48.50" fill="#eb7532" stroke="none" stroke-width="none" transform="translate(-142.19998168945312,23.550499420166016)" style="fill: rgb(52, 187, 230);"></path></g><g class="path" style="transform-origin: 78.65px 4.55051px; transform: matrix(1, 0, 0, 1, 0, 0); animation: bounce-b93e1b0f-a8f3-46ad-bb35-f105ebe37698 1s linear -0.0825s infinite normal forwards running;"><path d="M236.80-1.10L236.80-1.10L236.80-1.10Q239.20-1.10 241.80-3.90L241.80-3.90L243.30-2.70L243.30-2.70Q242.60-1.30 240.20-0.20L240.20-0.20L240.20-0.20Q237.80 0.90 234.90 0.90L234.90 0.90L234.90 0.90Q225.80 0.90 225.80-7.30L225.80-7.30L225.80-7.30Q225.80-10.80 227.60-19.80L227.60-19.80L227.60-19.80Q229.40-28.80 229.40-31.60L229.40-31.60L229.40-31.60Q229.40-35.90 225.30-35.90L225.30-35.90L225.30-35.90Q222-35.90 218.95-31.60L218.95-31.60L218.95-31.60Q215.90-27.30 213.90-19.80L213.90-19.80L210.50-1.10L210.50-1.10Q213.60-1.40 215.60-3.90L215.60-3.90L217.10-2.70L217.10-2.70Q214.10 0.90 209.60 0.90L209.60 0.90L209.60 0.90Q205.10 0.90 202.55-1.40L202.55-1.40L202.55-1.40Q200-3.70 200-7.40L200-7.40L200-7.40Q200-8.80 201.60-18.40L201.60-18.40L204.90-36.90L204.90-36.90Q201.90-36.60 199.90-34.10L199.90-34.10L198.40-35.30L198.40-35.30Q201.40-38.90 205.95-38.90L205.95-38.90L205.95-38.90Q210.50-38.90 213-36.60L213-36.60L213-36.60Q215.50-34.30 215.50-30.10L215.50-30.10L215.50-29.50L215.50-29.50Q219.60-38.90 228.30-38.90L228.30-38.90L228.30-38.90Q234.20-38.90 237.50-35.55L237.50-35.55L237.50-35.55Q240.80-32.20 240.80-26.30L240.80-26.30L240.80-26.30Q240.80-23.20 238.90-14.35L238.90-14.35L238.90-14.35Q237-5.50 236.80-1.10" fill="#eb7532" stroke="none" stroke-width="none" transform="translate(-142.19998168945312,23.550499420166016)" style="fill: rgb(67, 85, 219);"></path></g><g class="path" style="transform-origin: 126px 13.3005px; transform: matrix(1, 0, 0, 1, 0, 0); animation: bounce-b93e1b0f-a8f3-46ad-bb35-f105ebe37698 1s linear 0s infinite normal forwards running;"><path d="M280.90 10.90L280.90 10.90L280.90 10.90Q284.50 10.90 287.10 8.10L287.10 8.10L288.50 9.30L288.50 9.30Q286.10 12.70 280.90 12.70L280.90 12.70L280.90 12.70Q278.70 12.70 276.40 12.20L276.40 12.20L276.40 12.20Q269.60 18.40 259 18.40L259 18.40L259 18.40Q252.70 18.40 249.25 16.25L249.25 16.25L249.25 16.25Q245.80 14.10 245.80 10.65L245.80 10.65L245.80 10.65Q245.80 7.20 247.95 5.15L247.95 5.15L247.95 5.15Q250.10 3.10 255.60 3.10L255.60 3.10L255.60 3.10Q261.10 3.10 270.10 7.60L270.10 7.60L273.20-9L273.20-9Q268.70-0.70 261.60-0.70L261.60-0.70L261.60-0.70Q248-0.70 248-14.10L248-14.10L248-14.10Q248-25.30 253.65-32.10L253.65-32.10L253.65-32.10Q259.30-38.90 268.10-38.90L268.10-38.90L268.10-38.90Q273.20-38.90 276-35.80L276-35.80L276-35.80Q276.80-34.90 277.60-33.10L277.60-33.10L278.50-38L278.50-38Q285.90-38 289.30-38.60L289.30-38.60L290.60-38.90L284-2L284-2Q282.50 5.80 278 10.60L278 10.60L278 10.60Q279.30 10.90 280.90 10.90zM259.30-11L259.30-11Q259.30-6.40 260.20-4.85L260.20-4.85L260.20-4.85Q261.10-3.30 263.60-3.30L263.60-3.30L263.60-3.30Q266.10-3.30 268.70-6L268.70-6L268.70-6Q271.30-8.70 272.45-11.05L272.45-11.05L272.45-11.05Q273.60-13.40 274.40-15.60L274.40-15.60L276.50-27.10L276.50-27.80L276.50-27.80Q276.50-37 268.10-37L268.10-37L268.10-37Q264.90-37 262.10-28.30L262.10-28.30L262.10-28.30Q259.30-19.60 259.30-11L259.30-11zM258.60 16.40L258.60 16.40L258.60 16.40Q266.60 16.40 269.40 9.50L269.40 9.50L268 8.80L268 8.80Q266.80 8.20 266.55 8.05L266.55 8.05L266.55 8.05Q266.30 7.90 265.20 7.40L265.20 7.40L265.20 7.40Q264.10 6.90 263.60 6.75L263.60 6.75L263.60 6.75Q263.10 6.60 262.05 6.20L262.05 6.20L262.05 6.20Q261 5.80 260.30 5.65L260.30 5.65L260.30 5.65Q259.60 5.50 258.70 5.30L258.70 5.30L258.70 5.30Q257.20 5 254.30 5L254.30 5L254.30 5Q251.40 5 249.65 6.40L249.65 6.40L249.65 6.40Q247.90 7.80 247.90 10.50L247.90 10.50L247.90 10.50Q247.90 13.20 250.80 14.80L250.80 14.80L250.80 14.80Q253.70 16.40 258.60 16.40" fill="#eb7532" stroke="none" stroke-width="none" transform="translate(-142.19998168945312,23.550499420166016)" style="fill: rgb(210, 59, 231);"></path></g></g>
</g>
<style id="bounce-b93e1b0f-a8f3-46ad-bb35-f105ebe37698" data-anikit="">@keyframes bounce-b93e1b0f-a8f3-46ad-bb35-f105ebe37698
{
  0% {
    animation-timing-function: cubic-bezier(0.138,0.2541,0.2177,0.8747);
    transform: translate(0,0px) scaleY(1);
  }
  37% {
    animation-timing-function: cubic-bezier(0.7679,0.1817,0.8401,0.7167);
    transform: translate(0,-39.96px) scaleY(1);
  }
  72.2% {
    animation-timing-function: cubic-bezier(0.1045,0.2026,0.2224,0.9608);
    transform: translate(0,0px) scaleY(1);
  }
  87.2% {
    animation-timing-function: cubic-bezier(0.7463,0.2314,0.8159,0.6941);
    transform: translate(0,19.85px) scaleY(0.603);
  }
  100% {
    transform: translate(0,0px) scaleY(1);
  }
}</style><style id="bounce-b93e1b0f-a8f3-46ad-bb35-f105ebe37698" data-anikit="">@keyframes bounce-b93e1b0f-a8f3-46ad-bb35-f105ebe37698
{
  0% {
    animation-timing-function: cubic-bezier(0.138,0.2541,0.2177,0.8747);
    transform: translate(0,0px) scaleY(1);
  }
  37% {
    animation-timing-function: cubic-bezier(0.7679,0.1817,0.8401,0.7167);
    transform: translate(0,-39.96px) scaleY(1);
  }
  72.2% {
    animation-timing-function: cubic-bezier(0.1045,0.2026,0.2224,0.9608);
    transform: translate(0,0px) scaleY(1);
  }
  87.2% {
    animation-timing-function: cubic-bezier(0.7463,0.2314,0.8159,0.6941);
    transform: translate(0,19.85px) scaleY(0.603);
  }
  100% {
    transform: translate(0,0px) scaleY(1);
  }
}</style></svg>