<?xml version="1.0" standalone="no"?><!DOCTYPE svg PUBLIC "-//W3C//DTD SVG 1.1//EN" "http://www.w3.org/Graphics/SVG/1.1/DTD/svg11.dtd"><svg t="1552137276080" class="icon" style="" viewBox="0 0 1024 1024" version="1.1" xmlns="http://www.w3.org/2000/svg" p-id="4202" xmlns:xlink="http://www.w3.org/1999/xlink" width="64" height="64"><defs><style type="text/css"></style></defs><path d="M512.000512 397.989363 820.487422 76.000951c14.665001-15.250332 38.46301-15.250332 53.130058 0 14.570857 15.3455 14.570857 40.114626 0 55.461149L541.429775 478.217592c-8.156774 8.353248-18.841114 11.752672-29.429263 10.878768-10.587126 0.873903-21.270443-2.52552-29.430286-10.878768l-332.185658-346.755492c-14.569834-15.346523-14.569834-40.11565 0-55.461149 14.667048-15.250332 38.46301-15.250332 53.131081 0L512.000512 397.989363zM512.000512 868.293729l383.566886-400.370597c14.669094-15.346523 38.46608-15.346523 53.133128 0 14.667048 15.249309 14.667048 40.114626 0 55.363935L541.429775 948.427814c-8.156774 8.448416-18.841114 11.750625-29.429263 10.877745-10.587126 0.873903-21.270443-2.429329-29.430286-10.877745L75.301522 523.286044c-14.667048-15.248286-14.667048-40.114626 0-55.363935 14.667048-15.346523 38.464033-15.346523 53.130058 0L512.000512 868.293729z" p-id="4203" fill="#ffffff"></path></svg>